<svg width="34" height="34" viewBox="0 0 34 34" fill="none" xmlns="http://www.w3.org/2000/svg">
<path d="M4.23888 23.1511C4.44719 23.6766 4.49356 24.2524 4.37205 24.8044L2.8633 29.4652C2.81468 29.7016 2.82725 29.9465 2.89981 30.1766C2.97237 30.4067 3.10252 30.6145 3.27791 30.7803C3.4533 30.946 3.66812 31.0642 3.902 31.1236C4.13587 31.1831 4.38106 31.1818 4.6143 31.1199L9.44938 29.7061C9.97031 29.6027 10.5098 29.6479 11.0063 29.8364C14.0314 31.2491 17.4583 31.548 20.6823 30.6803C23.9064 29.8126 26.7203 27.8341 28.6278 25.0939C30.5352 22.3537 31.4136 19.0278 31.1078 15.7031C30.802 12.3784 29.3319 9.26847 26.9566 6.92208C24.5814 4.5757 21.4538 3.14361 18.1256 2.87849C14.7974 2.61338 11.4825 3.53226 8.76576 5.47304C6.04903 7.41381 4.10505 10.2517 3.27681 13.4861C2.44858 16.7205 2.7893 20.1435 4.23888 23.1511Z" stroke="white" stroke-width="2.83333" stroke-linecap="round" stroke-linejoin="round"/>
<path d="M12.8774 12.7498C13.2105 11.803 13.8679 11.0046 14.7332 10.4961C15.5985 9.98756 16.6159 9.80166 17.6051 9.97134C18.5943 10.141 19.4916 10.6553 20.138 11.4232C20.7843 12.191 21.1381 13.1628 21.1366 14.1665C21.1366 16.9998 16.8866 18.4165 16.8866 18.4165" stroke="white" stroke-width="2.83333" stroke-linecap="round" stroke-linejoin="round"/>
<path d="M17 24.0833H17.015" stroke="white" stroke-width="2.83333" stroke-linecap="round" stroke-linejoin="round"/>
</svg>
