<svg width="86" height="62" viewBox="0 0 86 62" fill="none" xmlns="http://www.w3.org/2000/svg">
<g opacity="0.1">
<path d="M43 1.25596e-05C49.1303 -0.00613068 55.049 2.24154 59.6299 6.31538C64.2108 10.3892 67.1342 16.0049 67.844 22.094C72.9488 22.5901 77.6679 25.0284 81.026 28.905C84.3842 32.7815 86.1247 37.8 85.888 42.9234C85.6513 48.0468 83.4553 52.8833 79.754 56.4337C76.0526 59.984 71.1288 61.9768 66 62.0001H17C12.4913 62.0001 8.1673 60.2089 4.97919 57.0208C1.79107 53.8327 0 49.5087 0 45C0 40.4913 1.79107 36.1673 4.97919 32.9792C8.1673 29.7911 12.4913 28 17 28H18.188C17.7649 24.49 18.0908 20.9302 19.1443 17.5554C20.1977 14.1806 21.9548 11.0676 24.2996 8.42164C26.6444 5.7757 29.5236 3.65699 32.7472 2.20533C35.9708 0.753675 39.4646 0.00202613 43 1.25596e-05ZM43 21C42.7533 20.9834 42.506 21.0194 42.2743 21.1056C42.0426 21.1918 41.8318 21.3262 41.656 21.5L30.656 31.5C30.2622 31.8589 30.0251 32.3581 29.9959 32.8901C29.9667 33.4221 30.1478 33.9442 30.5 34.344C30.8752 34.7118 31.3731 34.928 31.8981 34.9511C32.423 34.9741 32.9379 34.8025 33.344 34.469L41 27.5V49C41 49.5304 41.2107 50.0391 41.5858 50.4142C41.9609 50.7893 42.4696 51 43 51C43.5304 51 44.0391 50.7893 44.4142 50.4142C44.7893 50.0391 45 49.5304 45 49V27.5L52.656 34.469C53.0583 34.8109 53.5751 34.988 54.1025 34.9649C54.63 34.9417 55.1292 34.7199 55.5 34.344C55.8465 33.9416 56.0237 33.4208 55.9946 32.8906C55.9655 32.3604 55.7324 31.8621 55.344 31.5L44.344 21.5C43.9655 21.186 43.4917 21.0097 43 21Z" fill="#183072"/>
</g>
</svg>
