<svg width="7" height="4" viewBox="0 0 7 4" fill="none" xmlns="http://www.w3.org/2000/svg">
<path d="M3.36731 3.74202C3.33915 3.77427 3.30442 3.80013 3.26543 3.81785C3.22645 3.83556 3.18413 3.84473 3.14131 3.84473C3.09849 3.84473 3.05617 3.83556 3.01719 3.81785C2.97821 3.80013 2.94347 3.77427 2.91531 3.74202L0.076313 0.500018C0.0375657 0.456701 0.0122347 0.403062 0.0033989 0.345619C-0.0054369 0.288177 0.0026021 0.229404 0.0265398 0.176445C0.0504775 0.123485 0.089283 0.0786188 0.13824 0.0472987C0.187197 0.0159786 0.244196 -0.000447273 0.302313 1.81198e-05L5.98031 1.81198e-05C6.03843 -0.000447273 6.09543 0.0159786 6.14439 0.0472987C6.19334 0.0786188 6.23215 0.123485 6.25609 0.176445C6.28002 0.229404 6.28806 0.288177 6.27923 0.345619C6.27039 0.403062 6.24506 0.456701 6.20631 0.500018L3.36731 3.74202Z" fill="black"/>
</svg>
