<svg width="24" height="24" viewBox="0 0 24 24" fill="none" xmlns="http://www.w3.org/2000/svg">
<path d="M18.6426 4.71908C18.4147 4.49112 18.1442 4.31027 17.8463 4.18689C17.5485 4.06351 17.2293 4 16.9069 4C16.5846 4 16.2654 4.06351 15.9676 4.18689C15.6697 4.31027 15.3992 4.49112 15.1713 4.71908L5.43994 14.4483C5.37159 14.5141 5.32199 14.5969 5.29623 14.6882L4.02009 19.3089C3.9941 19.4019 3.99331 19.5002 4.01782 19.5936C4.04232 19.687 4.09123 19.7722 4.15953 19.8405C4.22783 19.9088 4.31306 19.9577 4.40649 19.9822C4.49992 20.0067 4.59819 20.0059 4.69121 19.9799L9.3115 18.7012C9.40285 18.6755 9.48569 18.6259 9.55149 18.5575L19.2828 8.82973C19.7421 8.36895 20 7.74496 20 7.09445C20 6.44394 19.7421 5.81995 19.2828 5.35917L18.6426 4.71908ZM6.62915 14.8017L14.5957 6.83906L17.161 9.4066L9.19725 17.3693L6.62915 14.8017ZM6.11682 15.8312L8.16828 17.8822L5.33001 18.6681L6.11682 15.8312ZM18.5118 8.05746L17.9334 8.63577L15.3646 6.06823L15.943 5.48992C16.1989 5.23482 16.5456 5.09157 16.9069 5.09157C17.2683 5.09157 17.615 5.23482 17.8709 5.48992L18.5111 6.13001C18.7664 6.38577 18.9098 6.73228 18.9099 7.09359C18.91 7.45489 18.7669 7.8015 18.5118 8.05746Z" fill="white"/>
</svg>
